PathFileType	4	(X/Y/Z)	C:\Users\Basilio\Documents\Thesis Gigler\squatting_fais\c3dfiles\054\SLS_back_pre5\markers_experimental.trc
DataRate	CameraRate	NumFrames	NumMarkers	Units	OrigDataRate	OrigDataStartFrame	OrigNumFrames
200.000000	200.000000	4	61	mm	200.000000	925	1480
Frame#	Time	FHD			LBHD			RBHD			C7			T10			CLAV			LSHO			LUUPA			LMUPA			LDUPA			LLEP			LMEP			LRAD			LUL			LRFIN			RSHO			RUPA1			RMUPA			RDUPA			RLEP			RMEP			RRAD			RUL			RUFIN			LASI			RASI			USACR			LSACR			RSACR			LTHI1			LTHI2			LTHI3			LTHI4			LLFC			LMFC			LTIB1			LTIB2			LTIB3			LTIB4			LLMAL			LMMAL			LHEE			LMT1			LMT2			LMT5			RTHI			RTHI2			RTHI3			RTHI4			RLFC			RMFC			RTIB1			RTIB2			RTIB3			RTIB4			RLMAL			RMMAL			RHEE			RMT1			RMT2			RMT5			
		X1	Y1	Z1	X2	Y2	Z2	X3	Y3	Z3	X4	Y4	Z4	X5	Y5	Z5	X6	Y6	Z6	X7	Y7	Z7	X8	Y8	Z8	X9	Y9	Z9	X10	Y10	Z10	X11	Y11	Z11	X12	Y12	Z12	X13	Y13	Z13	X14	Y14	Z14	X15	Y15	Z15	X16	Y16	Z16	X17	Y17	Z17	X18	Y18	Z18	X19	Y19	Z19	X20	Y20	Z20	X21	Y21	Z21	X22	Y22	Z22	X23	Y23	Z23	X24	Y24	Z24	X25	Y25	Z25	X26	Y26	Z26	X27	Y27	Z27	X28	Y28	Z28	X29	Y29	Z29	X30	Y30	Z30	X31	Y31	Z31	X32	Y32	Z32	X33	Y33	Z33	X34	Y34	Z34	X35	Y35	Z35	X36	Y36	Z36	X37	Y37	Z37	X38	Y38	Z38	X39	Y39	Z39	X40	Y40	Z40	X41	Y41	Z41	X42	Y42	Z42	X43	Y43	Z43	X44	Y44	Z44	X45	Y45	Z45	X46	Y46	Z46	X47	Y47	Z47	X48	Y48	Z48	X49	Y49	Z49	X50	Y50	Z50	X51	Y51	Z51	X52	Y52	Z52	X53	Y53	Z53	X54	Y54	Z54	X55	Y55	Z55	X56	Y56	Z56	X57	Y57	Z57	X58	Y58	Z58	X59	Y59	Z59	X60	Y60	Z60	X61	Y61	Z61	

926	4.625	-32.36028289794923	1640.880126953125	-1108.5927734375	-200.3262786865235	1588.72265625	-1171.5283203125	-209.3168945312501	1592.514038085938	-1031.611083984375	-247.1376953125001	1439.95947265625	-1078.525512695313	-372.6997985839844	1146.700073242188	-1042.785278320313	-115.7905426025391	1353.6650390625	-1095.44482421875	-187.8295288085938	1432.793212890625	-1231.069213867188	-52.65485000610353	1311.756469726563	-1365.059448242188	-17.83282089233399	1343.15576171875	-1349.616333007813	14.45367813110352	1300.8671875	-1377.034545898438	75.11297607421876	1301.317138671875	-1375.037841796875	75.2574920654297	1234.54296875	-1330.486694335938	313.3954467773438	1341.410522460938	-1254.987670898438	344.8082885742188	1307.79931640625	-1318.046875	402.3829956054689	1374.52587890625	-1262.56201171875	-159.9904479980469	1434.778076171875	-952.0802001953127	-25.54468345642091	1313.24169921875	-807.5170898437502	12.87842559814453	1339.114990234375	-819.451110839844	39.7733497619629	1291.151000976563	-793.2541503906252	85.40833282470705	1280.218139648438	-792.5301513671877	79.48132324218751	1221.759033203125	-844.1057128906252	324.7652282714844	1348.341796875	-936.931335449219	343.2675781250001	1319.86376953125	-865.9307861328127	397.4073791503907	1389.454711914063	-935.1112060546877	-272.8776550292969	926.5418701171877	-1166.690063476563	-251.3154754638672	929.0472412109377	-920.4282836914065	-407.2590637207032	1071.53369140625	-1033.251831054688	-428.5166320800782	1044.365600585938	-1059.220581054688	-420.5530090332032	1044.149536132813	-1002.063659667969	-316.7289733886719	716.7603149414064	-1234.410888671875	-252.2010498046876	662.5788574218751	-1231.288330078125	-210.3159942626954	685.7268676757814	-1226.184326171875	-250.5178375244141	604.4453125000001	-1212.429809570313	-183.1847381591797	476.8364868164064	-1180.640869140625	-152.0930633544922	495.8514404296876	-1047.0888671875	-185.0831146240235	324.4793701171876	-1101.213012695313	-246.7811431884766	287.9650878906251	-1151.80615234375	-211.1150512695313	276.6629333496094	-1125.21435546875	-247.8497772216797	216.1836547851563	-1078.741577148438	-352.2746276855469	107.5593872070313	-1103.539428710938	-321.1690979003907	133.3254089355469	-1011.8583984375	-426.825897216797	102.9712295532227	-1042.360961914063	-216.2016143798829	54.76422119140626	-1019.555114746094	-207.9166717529297	53.37316131591798	-1068.834228515625	-260.5935058593751	38.67921447753907	-1119.853149414063	-330.8942565917969	651.8335571289064	-814.5397949218752	-286.5492248535157	601.0666503906251	-812.9862060546877	-253.5684204101563	603.1815795898439	-819.2355957031252	-310.0270690917969	521.2111816406251	-830.084167480469	-327.7352294921876	473.0341186523439	-841.9819335937502	-267.0791320800782	449.7192382812501	-967.0178833007815	-398.7131958007814	396.6553955078126	-882.7720947265627	-487.5532531738282	454.5939331054689	-864.367614746094	-484.6465759277345	412.090789794922	-882.887145996094	-523.1176757812501	399.5565490722657	-924.6970214843752	-701.9678344726564	443.8038024902345	-949.3757934570315	-655.6904296875001	418.6915588378907	-1029.992309570313	-703.5759277343751	516.5904541015626	-1002.14599609375	-743.0903320312501	306.8700866699219	-1065.786254882813	-757.8106689453126	296.1076049804688	-1021.430053710938	-790.3911132812502	339.4202575683594	-978.539245605469	
927	4.63	-32.65153503417969	1643.146118164063	-1108.506103515625	-200.8766326904297	1590.921264648438	-1171.414672851563	-209.8111419677735	1594.755859375	-1031.430419921875	-247.6863555908204	1442.017700195313	-1078.395751953125	-372.5564575195313	1148.604858398438	-1042.8330078125	-115.9110183715821	1355.945068359375	-1095.258178710938	-188.5077209472657	1434.983032226563	-1231.116943359375	-53.27004623413087	1313.812377929688	-1365.1201171875	-18.42724990844727	1345.126220703125	-1349.58740234375	14.29776668548584	1302.585327148438	-1376.96923828125	74.58968353271486	1303.2744140625	-1375.034790039063	74.87658691406251	1236.634033203125	-1330.026123046875	312.8950805664063	1343.333740234375	-1254.850708007813	344.3939208984376	1309.787353515625	-1317.872436523438	401.8173217773439	1376.561157226563	-1262.43359375	-160.537582397461	1436.938232421875	-951.9154052734377	-26.09529304504395	1315.287475585938	-807.4495239257815	12.40130805969239	1341.232177734375	-819.373718261719	39.0971794128418	1293.018676757813	-793.1993408203127	84.92990875244142	1282.063354492188	-792.4315185546877	78.88895416259767	1223.588256835938	-844.059265136719	323.9624023437501	1350.217041015625	-936.5327148437502	342.4312133789063	1321.672973632813	-865.6018066406252	396.9011840820314	1391.536254882813	-934.7935791015627	-272.5557250976563	928.450134277344	-1166.399536132813	-250.8209228515626	931.1639404296877	-920.3298339843752	-406.8799133300782	1073.39697265625	-1033.164306640625	-428.3311157226564	1046.162719726563	-1059.176025390625	-420.4214782714845	1045.91455078125	-1002.021423339844	-316.8708496093751	718.0991210937501	-1234.168212890625	-251.6329040527344	663.2799072265626	-1231.171997070313	-210.6393585205079	686.7102050781251	-1225.9267578125	-251.230941772461	605.4980468750001	-1212.11767578125	-184.2027740478516	477.520965576172	-1180.427734375	-153.3230285644532	496.7317504882814	-1046.845825195313	-185.869369506836	325.1079406738282	-1101.0029296875	-247.3936157226563	288.5367431640626	-1151.637573242188	-211.3158721923829	277.1005554199219	-1125.142944335938	-248.4012908935547	216.5587005615235	-1078.59814453125	-352.6074829101563	107.900505065918	-1103.45068359375	-321.1699523925782	133.3905792236328	-1011.851257324219	-426.8406372070314	103.0268020629883	-1042.288330078125	-216.1702270507813	54.75667572021486	-1019.501220703125	-207.9236907958985	53.39937591552736	-1068.77734375	-260.5967102050782	38.71434402465821	-1119.812377929688	-330.1852722167969	653.8283691406251	-814.0916137695315	-285.7658691406251	603.0354003906251	-812.6041259765627	-252.7391510009766	605.3565063476564	-818.9429931640627	-309.2761840820313	523.3128662109376	-829.5813598632815	-326.9062500000001	475.0337219238282	-841.4792480468752	-266.1973876953126	451.7521057128907	-966.4807739257815	-397.7628479003907	398.300018310547	-882.4166259765627	-486.8961181640626	456.4974365234376	-863.9578857421877	-483.9695129394532	413.9419555664064	-882.3664550781252	-522.2520751953126	401.2288208007814	-924.2414550781252	-701.2342529296876	445.0787658691407	-949.1502685546877	-654.8886718750001	420.0466918945314	-1029.567138671875	-702.9185180664064	517.7832641601564	-1001.935546875	-742.4981079101564	308.1141662597657	-1065.198608398438	-756.7056274414064	297.1931152343751	-1021.056945800781	-789.4888916015627	340.6113586425782	-978.4271240234377	
928	4.635	-33.22068405151368	1645.205932617188	-1108.444702148438	-200.6880798339844	1593.251586914063	-1171.357055664063	-210.4694824218751	1596.94775390625	-1031.313598632813	-247.9613037109376	1444.068481445313	-1078.389892578125	-372.5075988769532	1150.318481445313	-1042.775756835938	-116.1801452636719	1358.260864257813	-1095.208251953125	-188.943832397461	1437.077270507813	-1231.141723632813	-54.35966110229494	1315.871459960938	-1364.790283203125	-18.79527473449707	1347.056518554688	-1349.519409179688	13.38488292694092	1304.819213867188	-1376.9755859375	74.11886596679689	1305.154907226563	-1374.853515625	74.20233154296876	1238.514404296875	-1330.0869140625	312.3738708496094	1345.436645507813	-1254.646240234375	343.0631103515626	1311.897094726563	-1317.4599609375	401.4526977539064	1378.36376953125	-1262.212158203125	-161.2445220947266	1439.23291015625	-951.791442871094	-26.60439109802247	1317.269287109375	-807.2673339843752	11.98536682128906	1343.253662109375	-819.2678833007815	38.60038375854493	1295.037231445313	-792.9691162109377	84.4652557373047	1284.112670898438	-792.3916015625002	78.37327575683595	1225.55908203125	-844.1812744140627	324.1087951660157	1351.804443359375	-936.9505615234377	342.0310363769532	1323.352661132813	-865.4182739257815	396.4739990234376	1392.90673828125	-934.5090332031252	-272.3856811523438	930.131042480469	-1166.045166015625	-250.4080200195313	933.281188964844	-920.1751708984377	-406.8161621093751	1075.181396484375	-1032.9892578125	-428.0234375000001	1047.940673828125	-1059.072021484375	-420.2515869140626	1047.664428710938	-1002.0126953125	-316.9713745117188	719.3439331054689	-1233.889282226563	-251.8067626953126	664.3884887695314	-1230.702758789063	-210.5561218261719	687.6048583984376	-1225.810913085938	-251.8058166503907	606.4617309570314	-1211.70458984375	-185.0312042236328	478.3970336914064	-1180.201538085938	-154.3025665283203	497.5649719238282	-1046.57666015625	-186.419662475586	325.7994995117188	-1100.946899414063	-247.8456268310547	288.9205017089844	-1151.482055664063	-212.0223388671876	277.6273803710938	-1124.994506835938	-248.8350524902344	216.8998565673829	-1078.482421875	-352.5557250976563	107.9788894653321	-1103.422973632813	-321.1879882812501	133.4176483154297	-1011.79736328125	-426.7982177734376	103.0698623657227	-1042.264282226563	-216.1637878417969	54.72379302978517	-1019.49951171875	-207.9273529052735	53.40244293212892	-1068.761108398438	-260.6353759765626	38.72172546386719	-1119.828979492188	-329.7875366210938	655.8213500976564	-813.7986450195315	-285.2294616699219	605.0800170898439	-812.0196533203127	-251.9617919921876	607.3823242187501	-818.5402832031252	-308.4178161621094	525.2277221679689	-829.1177368164065	-326.1527099609376	477.013885498047	-840.963806152344	-265.5479431152344	453.6634216308595	-966.136413574219	-396.919891357422	400.2491149902345	-881.8778076171877	-486.0026245117189	458.0004272460939	-863.6331176757815	-482.8673400878907	415.5028381347657	-882.220886230469	-521.0638427734376	402.7500610351564	-924.0997314453127	-700.1845092773439	446.2442932128907	-948.8513183593752	-653.9781494140626	421.4384155273439	-1029.221923828125	-701.9951171875001	518.9664306640626	-1001.722045898438	-741.0097656250001	309.1513061523438	-1065.08544921875	-755.5111694335939	298.4562988281251	-1021.206604003906	-788.4185180664065	341.6646423339844	-978.252624511719	
929	4.64	-33.82972717285157	1647.467163085938	-1108.3359375	-201.5911254882813	1595.365478515625	-1171.32470703125	-210.7312164306641	1599.080810546875	-1031.312744140625	-248.4562530517579	1446.16259765625	-1078.260131835938	-372.4823608398438	1152.171264648438	-1042.730590820313	-116.572006225586	1360.54541015625	-1095.15869140625	-189.2938385009766	1438.874267578125	-1231.06591796875	-54.75211334228517	1317.786743164063	-1364.590454101563	-19.22294807434082	1349.064819335938	-1349.500610351563	12.90996742248536	1306.672241210938	-1376.86865234375	73.69798278808595	1307.2294921875	-1374.867431640625	73.82748413085939	1240.325439453125	-1329.725341796875	311.7192382812501	1347.479370117188	-1254.623657226563	343.3282775878907	1313.59716796875	-1317.575439453125	400.9400024414064	1380.423828125	-1262.156005859375	-161.5954284667969	1441.30078125	-951.758483886719	-26.9801368713379	1319.099487304688	-807.2442626953127	11.41150188446045	1345.185668945313	-819.0744628906252	38.13997650146485	1296.938232421875	-792.7299804687502	83.7777786254883	1285.916137695313	-792.1616821289065	77.84854888916017	1227.41796875	-844.0364379882815	322.8379516601563	1353.752563476563	-936.0758056640627	341.3720397949219	1325.065673828125	-865.2489013671877	395.999725341797	1394.677001953125	-934.361267089844	-272.0412902832032	932.0137329101565	-1165.785522460938	-250.1020965576172	935.4082031250002	-920.0535278320315	-406.7203063964845	1076.932006835938	-1032.96337890625	-428.3736572265626	1049.863403320313	-1058.87451171875	-420.0816040039064	1049.484008789063	-1001.700927734375	-317.0466918945313	720.7544555664064	-1233.598754882813	-252.9101257324219	665.6978149414064	-1230.482788085938	-211.0500793457032	688.4451904296876	-1225.388671875	-252.4789123535157	607.6903076171876	-1211.316040039063	-185.7819061279297	479.154998779297	-1179.931396484375	-155.7052154541016	498.4002685546876	-1046.581787109375	-186.9539489746094	326.2294616699219	-1100.978637695313	-248.3643798828126	289.3565673828126	-1151.330078125	-212.874008178711	278.1638793945313	-1124.878051757813	-249.1195220947266	217.3483581542969	-1078.432739257813	-352.2666320800782	107.8138732910157	-1103.433349609375	-321.2041625976563	133.4312133789063	-1011.744689941406	-426.8384094238282	103.1357498168946	-1042.244873046875	-216.1293487548829	54.70297241210939	-1019.482055664063	-207.9635009765626	53.41310501098634	-1068.769409179688	-260.5388793945313	38.75914764404298	-1119.807495117188	-329.1364746093751	657.9534912109376	-813.325378417969	-284.2997131347657	607.2510375976564	-811.7486572265627	-251.4256439208985	609.6096801757814	-818.0714111328127	-307.8507080078126	527.6310424804689	-828.5708007812502	-325.6295776367188	478.9235229492189	-840.4028320312502	-264.9255371093751	455.6347045898439	-965.555603027344	-395.9352111816407	402.3106079101564	-881.2846679687502	-485.0539550781251	459.7439575195314	-863.0430908203127	-481.8052062988282	417.1148681640626	-881.6732177734377	-520.2283325195314	404.3621826171876	-923.4439697265627	-699.2505493164064	447.4651184082032	-948.634216308594	-652.9310913085939	422.5918273925782	-1028.9794921875	-701.3499145507814	520.2717285156251	-1001.444458007813	-739.5942993164064	309.8822631835938	-1064.61328125	-754.2100219726564	299.3686218261719	-1020.766418457031	-787.2234497070315	342.7320861816407	-977.909362792969	
